<mxfile host="65bd71144e">
    <diagram id="4JQ2Ok1q3_e8AMzSLteF" name="Danh sách nhân viên">
        <mxGraphModel dx="1049" dy="629" grid="1" gridSize="10" guides="1" tooltips="1" connect="1" arrows="1" fold="1" page="1" pageScale="1" pageWidth="840" pageHeight="800" math="0" shadow="0">
            <root>
                <mxCell id="0"/>
                <mxCell id="1" parent="0"/>
                <mxCell id="9" value="Nhân Viên /&amp;nbsp; Danh sách nhân viên" style="text;html=1;align=center;verticalAlign=middle;resizable=0;points=[];autosize=1;strokeColor=none;fillColor=none;" parent="1" vertex="1">
                    <mxGeometry x="120" y="110" width="200" height="20" as="geometry"/>
                </mxCell>
                <mxCell id="11" value="Hình ảnh nhân viên&lt;br&gt;&lt;br&gt;Nhân Viên A" style="rounded=1;whiteSpace=wrap;html=1;" parent="1" vertex="1">
                    <mxGeometry x="80" y="150" width="100" height="60" as="geometry"/>
                </mxCell>
                <mxCell id="54" value="Thông tin liên hệ&amp;nbsp;&lt;br&gt;Địa chỉ:&amp;nbsp;&lt;br&gt;Số điện thoại:&lt;br&gt;Tổng Đài:&lt;br&gt;Mail:" style="whiteSpace=wrap;html=1;labelBorderColor=none;strokeWidth=1;" parent="1" vertex="1">
                    <mxGeometry y="340" width="420" height="130" as="geometry"/>
                </mxCell>
                <mxCell id="55" value="Link các mạng xã hồi&amp;nbsp;&lt;br&gt;Facebook, Gmail, Youtube" style="whiteSpace=wrap;html=1;labelBorderColor=none;strokeWidth=1;" parent="1" vertex="1">
                    <mxGeometry x="431" y="340" width="409" height="130" as="geometry"/>
                </mxCell>
                <mxCell id="6pyKNAw0bjSTRbolk1vD-76" value="Hình ảnh nhân viên&lt;br&gt;&lt;br&gt;Nhân Viên A" style="rounded=1;whiteSpace=wrap;html=1;" parent="1" vertex="1">
                    <mxGeometry x="560" y="150" width="90" height="60" as="geometry"/>
                </mxCell>
                <mxCell id="6pyKNAw0bjSTRbolk1vD-77" value="Hình ảnh nhân viên&lt;br&gt;&lt;br&gt;Nhân Viên A" style="rounded=1;whiteSpace=wrap;html=1;" parent="1" vertex="1">
                    <mxGeometry x="440" y="150" width="100" height="60" as="geometry"/>
                </mxCell>
                <mxCell id="6pyKNAw0bjSTRbolk1vD-78" value="Hình ảnh nhân viên&lt;br&gt;&lt;br&gt;Nhân Viên A" style="rounded=1;whiteSpace=wrap;html=1;" parent="1" vertex="1">
                    <mxGeometry x="320" y="150" width="100" height="60" as="geometry"/>
                </mxCell>
                <mxCell id="6pyKNAw0bjSTRbolk1vD-79" value="Hình ảnh nhân viên&lt;br&gt;&lt;br&gt;Nhân Viên A" style="rounded=1;whiteSpace=wrap;html=1;" parent="1" vertex="1">
                    <mxGeometry x="200" y="150" width="100" height="60" as="geometry"/>
                </mxCell>
                <mxCell id="6pyKNAw0bjSTRbolk1vD-80" value="Hình ảnh nhân viên&lt;br&gt;&lt;br&gt;Nhân Viên A" style="rounded=1;whiteSpace=wrap;html=1;" parent="1" vertex="1">
                    <mxGeometry x="670" y="150" width="90" height="60" as="geometry"/>
                </mxCell>
                <mxCell id="e5nIcvIbOtZqtk30_KT_-55" value="LOGO" style="ellipse;whiteSpace=wrap;html=1;" vertex="1" parent="1">
                    <mxGeometry x="30" y="50" width="70" height="60" as="geometry"/>
                </mxCell>
                <mxCell id="e5nIcvIbOtZqtk30_KT_-56" value="Nhân Sự" style="whiteSpace=wrap;html=1;" vertex="1" parent="1">
                    <mxGeometry x="110" y="70" width="100" height="20" as="geometry"/>
                </mxCell>
                <mxCell id="e5nIcvIbOtZqtk30_KT_-57" value="Bảng Lương" style="whiteSpace=wrap;html=1;" vertex="1" parent="1">
                    <mxGeometry x="230" y="67.5" width="100" height="20" as="geometry"/>
                </mxCell>
                <mxCell id="e5nIcvIbOtZqtk30_KT_-58" value="Phòng ban" style="whiteSpace=wrap;html=1;" vertex="1" parent="1">
                    <mxGeometry x="351" y="70" width="100" height="20" as="geometry"/>
                </mxCell>
                <mxCell id="e5nIcvIbOtZqtk30_KT_-59" value="Input search" style="rounded=1;whiteSpace=wrap;html=1;" vertex="1" parent="1">
                    <mxGeometry x="540" y="67.5" width="160" height="25" as="geometry"/>
                </mxCell>
                <mxCell id="e5nIcvIbOtZqtk30_KT_-60" value="button search" style="rounded=1;whiteSpace=wrap;html=1;" vertex="1" parent="1">
                    <mxGeometry x="710" y="70" width="90" height="20" as="geometry"/>
                </mxCell>
                <mxCell id="e5nIcvIbOtZqtk30_KT_-67" value="Hình ảnh nhân viên&lt;br&gt;&lt;br&gt;Nhân Viên A" style="rounded=1;whiteSpace=wrap;html=1;" vertex="1" parent="1">
                    <mxGeometry x="80" y="240" width="100" height="60" as="geometry"/>
                </mxCell>
                <mxCell id="e5nIcvIbOtZqtk30_KT_-68" value="Hình ảnh nhân viên&lt;br&gt;&lt;br&gt;Nhân Viên A" style="rounded=1;whiteSpace=wrap;html=1;" vertex="1" parent="1">
                    <mxGeometry x="560" y="240" width="90" height="60" as="geometry"/>
                </mxCell>
                <mxCell id="e5nIcvIbOtZqtk30_KT_-69" value="Hình ảnh nhân viên&lt;br&gt;&lt;br&gt;Nhân Viên A" style="rounded=1;whiteSpace=wrap;html=1;" vertex="1" parent="1">
                    <mxGeometry x="440" y="240" width="100" height="60" as="geometry"/>
                </mxCell>
                <mxCell id="e5nIcvIbOtZqtk30_KT_-70" value="Hình ảnh nhân viên&lt;br&gt;&lt;br&gt;Nhân Viên A" style="rounded=1;whiteSpace=wrap;html=1;" vertex="1" parent="1">
                    <mxGeometry x="320" y="240" width="100" height="60" as="geometry"/>
                </mxCell>
                <mxCell id="e5nIcvIbOtZqtk30_KT_-71" value="Hình ảnh nhân viên&lt;br&gt;&lt;br&gt;Nhân Viên A" style="rounded=1;whiteSpace=wrap;html=1;" vertex="1" parent="1">
                    <mxGeometry x="200" y="240" width="100" height="60" as="geometry"/>
                </mxCell>
                <mxCell id="e5nIcvIbOtZqtk30_KT_-72" value="Hình ảnh nhân viên&lt;br&gt;&lt;br&gt;Nhân Viên A" style="rounded=1;whiteSpace=wrap;html=1;" vertex="1" parent="1">
                    <mxGeometry x="670" y="240" width="90" height="60" as="geometry"/>
                </mxCell>
            </root>
        </mxGraphModel>
    </diagram>
    <diagram id="mS7YzlPzLlprgXw0kior" name="Bảng lương">
        <mxGraphModel dx="1049" dy="629" grid="1" gridSize="10" guides="1" tooltips="1" connect="1" arrows="1" fold="1" page="1" pageScale="1" pageWidth="830" pageHeight="1100" math="0" shadow="0">
            <root>
                <mxCell id="_7Fs5lmqU3UMhYxIfDpc-0"/>
                <mxCell id="_7Fs5lmqU3UMhYxIfDpc-1" parent="_7Fs5lmqU3UMhYxIfDpc-0"/>
                <mxCell id="F5HCllPqYgVdPET4ipF6-6" value="Nhân Viên /&amp;nbsp; Bang Luong" style="text;html=1;align=center;verticalAlign=middle;resizable=0;points=[];autosize=1;strokeColor=none;fillColor=none;fontSize=16;" parent="_7Fs5lmqU3UMhYxIfDpc-1" vertex="1">
                    <mxGeometry x="95" y="110" width="200" height="20" as="geometry"/>
                </mxCell>
                <mxCell id="F5HCllPqYgVdPET4ipF6-19" value="Thông tin liên hệ&amp;nbsp;&lt;br style=&quot;font-size: 15px;&quot;&gt;Địa chỉ:&amp;nbsp;&lt;br style=&quot;font-size: 15px;&quot;&gt;Số điện thoại:&lt;br style=&quot;font-size: 15px;&quot;&gt;Tổng Đài:&lt;br style=&quot;font-size: 15px;&quot;&gt;Mail:" style="whiteSpace=wrap;html=1;labelBorderColor=none;strokeWidth=1;fontSize=15;" parent="_7Fs5lmqU3UMhYxIfDpc-1" vertex="1">
                    <mxGeometry y="630" width="409" height="130" as="geometry"/>
                </mxCell>
                <mxCell id="F5HCllPqYgVdPET4ipF6-20" value="Link các mạng xã hồi&amp;nbsp;&lt;br style=&quot;font-size: 15px;&quot;&gt;Facebook, Gmail, Youtube" style="whiteSpace=wrap;html=1;labelBorderColor=none;strokeWidth=1;fontSize=15;" parent="_7Fs5lmqU3UMhYxIfDpc-1" vertex="1">
                    <mxGeometry x="421" y="630" width="409" height="130" as="geometry"/>
                </mxCell>
                <mxCell id="F5HCllPqYgVdPET4ipF6-21" value="&lt;b&gt;&lt;font style=&quot;font-size: 19px&quot;&gt;Nguyen Van A&lt;/font&gt;&lt;br&gt;&lt;/b&gt;Mã nhân viên : 0&lt;br&gt;Số ngày làm thêm: 1&lt;br&gt;Lương: xxxxxx" style="rounded=1;whiteSpace=wrap;html=1;align=left;" parent="_7Fs5lmqU3UMhYxIfDpc-1" vertex="1">
                    <mxGeometry x="87.5" y="160" width="180" height="110" as="geometry"/>
                </mxCell>
                <mxCell id="F5HCllPqYgVdPET4ipF6-22" value="&lt;b&gt;&lt;font style=&quot;font-size: 19px&quot;&gt;Nguyen Van A&lt;/font&gt;&lt;br&gt;&lt;/b&gt;Mã nhân viên : 0&lt;br&gt;Số ngày làm thêm: 1&lt;br&gt;Lương: xxxxxx" style="rounded=1;whiteSpace=wrap;html=1;align=left;" parent="_7Fs5lmqU3UMhYxIfDpc-1" vertex="1">
                    <mxGeometry x="90" y="320" width="180" height="110" as="geometry"/>
                </mxCell>
                <mxCell id="F5HCllPqYgVdPET4ipF6-23" value="&lt;b&gt;&lt;font style=&quot;font-size: 19px&quot;&gt;Nguyen Van A&lt;/font&gt;&lt;br&gt;&lt;/b&gt;Mã nhân viên : 0&lt;br&gt;Số ngày làm thêm: 1&lt;br&gt;Lương: xxxxxx" style="rounded=1;whiteSpace=wrap;html=1;align=left;" parent="_7Fs5lmqU3UMhYxIfDpc-1" vertex="1">
                    <mxGeometry x="567.5" y="160" width="180" height="110" as="geometry"/>
                </mxCell>
                <mxCell id="F5HCllPqYgVdPET4ipF6-24" value="&lt;b&gt;&lt;font style=&quot;font-size: 19px&quot;&gt;Nguyen Van A&lt;/font&gt;&lt;br&gt;&lt;/b&gt;Mã nhân viên : 0&lt;br&gt;Số ngày làm thêm: 1&lt;br&gt;Lương: xxxxxx" style="rounded=1;whiteSpace=wrap;html=1;align=left;" parent="_7Fs5lmqU3UMhYxIfDpc-1" vertex="1">
                    <mxGeometry x="327.5" y="160" width="180" height="110" as="geometry"/>
                </mxCell>
                <mxCell id="F5HCllPqYgVdPET4ipF6-25" value="&lt;b&gt;&lt;font style=&quot;font-size: 19px&quot;&gt;Nguyen Van A&lt;/font&gt;&lt;br&gt;&lt;/b&gt;Mã nhân viên : 0&lt;br&gt;Số ngày làm thêm: 1&lt;br&gt;Lương: xxxxxx" style="rounded=1;whiteSpace=wrap;html=1;align=left;" parent="_7Fs5lmqU3UMhYxIfDpc-1" vertex="1">
                    <mxGeometry x="567.5" y="320" width="180" height="110" as="geometry"/>
                </mxCell>
                <mxCell id="F5HCllPqYgVdPET4ipF6-26" value="&lt;b&gt;&lt;font style=&quot;font-size: 19px&quot;&gt;Nguyen Van A&lt;/font&gt;&lt;br&gt;&lt;/b&gt;Mã nhân viên : 0&lt;br&gt;Số ngày làm thêm: 1&lt;br&gt;Lương: xxxxxx" style="rounded=1;whiteSpace=wrap;html=1;align=left;" parent="_7Fs5lmqU3UMhYxIfDpc-1" vertex="1">
                    <mxGeometry x="327.5" y="320" width="180" height="110" as="geometry"/>
                </mxCell>
                <mxCell id="F5HCllPqYgVdPET4ipF6-29" value="&lt;b&gt;&lt;font style=&quot;font-size: 19px&quot;&gt;Nguyen Van A&lt;/font&gt;&lt;br&gt;&lt;/b&gt;Mã nhân viên : 0&lt;br&gt;Số ngày làm thêm: 1&lt;br&gt;Lương: xxxxxx" style="rounded=1;whiteSpace=wrap;html=1;align=left;" parent="_7Fs5lmqU3UMhYxIfDpc-1" vertex="1">
                    <mxGeometry x="567.5" y="480" width="180" height="110" as="geometry"/>
                </mxCell>
                <mxCell id="F5HCllPqYgVdPET4ipF6-30" value="&lt;b&gt;&lt;font style=&quot;font-size: 19px&quot;&gt;Nguyen Van A&lt;/font&gt;&lt;br&gt;&lt;/b&gt;Mã nhân viên : 0&lt;br&gt;Số ngày làm thêm: 1&lt;br&gt;Lương: xxxxxx" style="rounded=1;whiteSpace=wrap;html=1;align=left;" parent="_7Fs5lmqU3UMhYxIfDpc-1" vertex="1">
                    <mxGeometry x="327.5" y="480" width="180" height="110" as="geometry"/>
                </mxCell>
                <mxCell id="F5HCllPqYgVdPET4ipF6-31" value="&lt;b&gt;&lt;font style=&quot;font-size: 19px&quot;&gt;Nguyen Van A&lt;/font&gt;&lt;br&gt;&lt;/b&gt;Mã nhân viên : 0&lt;br&gt;Số ngày làm thêm: 1&lt;br&gt;Lương: xxxxxx" style="rounded=1;whiteSpace=wrap;html=1;align=left;" parent="_7Fs5lmqU3UMhYxIfDpc-1" vertex="1">
                    <mxGeometry x="87.5" y="480" width="180" height="110" as="geometry"/>
                </mxCell>
                <mxCell id="Zk5ofxRmO0sBHc9miGr2-0" value="LOGO" style="ellipse;whiteSpace=wrap;html=1;fontSize=16;" vertex="1" parent="_7Fs5lmqU3UMhYxIfDpc-1">
                    <mxGeometry x="30" y="40" width="70" height="60" as="geometry"/>
                </mxCell>
                <mxCell id="Zk5ofxRmO0sBHc9miGr2-1" value="Nhân Sự" style="whiteSpace=wrap;html=1;fontSize=16;" vertex="1" parent="_7Fs5lmqU3UMhYxIfDpc-1">
                    <mxGeometry x="110" y="60" width="100" height="20" as="geometry"/>
                </mxCell>
                <mxCell id="Zk5ofxRmO0sBHc9miGr2-2" value="Bảng Lương" style="whiteSpace=wrap;html=1;fontSize=16;" vertex="1" parent="_7Fs5lmqU3UMhYxIfDpc-1">
                    <mxGeometry x="227.5" y="57.5" width="100" height="20" as="geometry"/>
                </mxCell>
                <mxCell id="Zk5ofxRmO0sBHc9miGr2-3" value="Phòng ban" style="whiteSpace=wrap;html=1;fontSize=16;" vertex="1" parent="_7Fs5lmqU3UMhYxIfDpc-1">
                    <mxGeometry x="350" y="57.5" width="100" height="20" as="geometry"/>
                </mxCell>
                <mxCell id="Zk5ofxRmO0sBHc9miGr2-4" value="Input search" style="rounded=1;whiteSpace=wrap;html=1;fontSize=16;" vertex="1" parent="_7Fs5lmqU3UMhYxIfDpc-1">
                    <mxGeometry x="540" y="57.5" width="160" height="25" as="geometry"/>
                </mxCell>
                <mxCell id="Zk5ofxRmO0sBHc9miGr2-5" value="button search" style="rounded=1;whiteSpace=wrap;html=1;fontSize=12;" vertex="1" parent="_7Fs5lmqU3UMhYxIfDpc-1">
                    <mxGeometry x="710" y="60" width="90" height="20" as="geometry"/>
                </mxCell>
            </root>
        </mxGraphModel>
    </diagram>
    <diagram id="9uH1_ZCsXbLaQJuq9f_n" name="Phòng ban ">
        <mxGraphModel dx="1129" dy="677" grid="1" gridSize="10" guides="1" tooltips="1" connect="1" arrows="1" fold="1" page="1" pageScale="1" pageWidth="830" pageHeight="1100" math="0" shadow="0">
            <root>
                <mxCell id="El_QOjaHWbviDtumHYIR-0"/>
                <mxCell id="El_QOjaHWbviDtumHYIR-1" parent="El_QOjaHWbviDtumHYIR-0"/>
                <mxCell id="kIxDXQBdei9jlVGk-iT9-6" value="Nhân Viên /&amp;nbsp; Bang Luong" style="text;html=1;align=center;verticalAlign=middle;resizable=0;points=[];autosize=1;strokeColor=none;fillColor=none;fontSize=16;" parent="El_QOjaHWbviDtumHYIR-1" vertex="1">
                    <mxGeometry x="95" y="110" width="200" height="20" as="geometry"/>
                </mxCell>
                <mxCell id="kIxDXQBdei9jlVGk-iT9-7" value="Thông tin liên hệ&amp;nbsp;&lt;br style=&quot;font-size: 16px;&quot;&gt;Địa chỉ:&amp;nbsp;&lt;br style=&quot;font-size: 16px;&quot;&gt;Số điện thoại:&lt;br style=&quot;font-size: 16px;&quot;&gt;Tổng Đài:&lt;br style=&quot;font-size: 16px;&quot;&gt;Mail:" style="whiteSpace=wrap;html=1;labelBorderColor=none;strokeWidth=1;fontSize=16;align=center;" parent="El_QOjaHWbviDtumHYIR-1" vertex="1">
                    <mxGeometry y="420" width="409" height="130" as="geometry"/>
                </mxCell>
                <mxCell id="kIxDXQBdei9jlVGk-iT9-8" value="Link các mạng xã hồi&amp;nbsp;&lt;br style=&quot;font-size: 16px;&quot;&gt;Facebook, Gmail, Youtube" style="whiteSpace=wrap;html=1;labelBorderColor=none;strokeWidth=1;fontSize=16;align=center;" parent="El_QOjaHWbviDtumHYIR-1" vertex="1">
                    <mxGeometry x="421" y="420" width="409" height="130" as="geometry"/>
                </mxCell>
                <mxCell id="kIxDXQBdei9jlVGk-iT9-9" value="&lt;b style=&quot;font-size: 20px&quot;&gt;Tên phòng ban&lt;br&gt;&lt;/b&gt;Số lượng nhân viên : x" style="rounded=1;whiteSpace=wrap;html=1;align=left;" parent="El_QOjaHWbviDtumHYIR-1" vertex="1">
                    <mxGeometry x="90" y="160" width="175" height="80" as="geometry"/>
                </mxCell>
                <mxCell id="kIxDXQBdei9jlVGk-iT9-18" value="&lt;b style=&quot;font-size: 20px&quot;&gt;Tên phòng ban&lt;br&gt;&lt;/b&gt;Số lượng nhân viên : x" style="rounded=1;whiteSpace=wrap;html=1;align=left;" parent="El_QOjaHWbviDtumHYIR-1" vertex="1">
                    <mxGeometry x="570" y="280" width="175" height="80" as="geometry"/>
                </mxCell>
                <mxCell id="kIxDXQBdei9jlVGk-iT9-19" value="&lt;b style=&quot;font-size: 20px&quot;&gt;Tên phòng ban&lt;br&gt;&lt;/b&gt;Số lượng nhân viên : x" style="rounded=1;whiteSpace=wrap;html=1;align=left;" parent="El_QOjaHWbviDtumHYIR-1" vertex="1">
                    <mxGeometry x="330" y="280" width="175" height="80" as="geometry"/>
                </mxCell>
                <mxCell id="kIxDXQBdei9jlVGk-iT9-20" value="&lt;b style=&quot;font-size: 20px&quot;&gt;Tên phòng ban&lt;br&gt;&lt;/b&gt;Số lượng nhân viên : x" style="rounded=1;whiteSpace=wrap;html=1;align=left;" parent="El_QOjaHWbviDtumHYIR-1" vertex="1">
                    <mxGeometry x="570" y="160" width="175" height="80" as="geometry"/>
                </mxCell>
                <mxCell id="kIxDXQBdei9jlVGk-iT9-21" value="&lt;b style=&quot;font-size: 20px&quot;&gt;Tên phòng ban&lt;br&gt;&lt;/b&gt;Số lượng nhân viên : x" style="rounded=1;whiteSpace=wrap;html=1;align=left;" parent="El_QOjaHWbviDtumHYIR-1" vertex="1">
                    <mxGeometry x="90" y="280" width="175" height="80" as="geometry"/>
                </mxCell>
                <mxCell id="kIxDXQBdei9jlVGk-iT9-22" value="&lt;b style=&quot;font-size: 20px&quot;&gt;Tên phòng ban&lt;br&gt;&lt;/b&gt;Số lượng nhân viên : x" style="rounded=1;whiteSpace=wrap;html=1;align=left;" parent="El_QOjaHWbviDtumHYIR-1" vertex="1">
                    <mxGeometry x="330" y="160" width="175" height="80" as="geometry"/>
                </mxCell>
                <mxCell id="zDJ5il20ffKhUO-OGM2W-0" value="LOGO" style="ellipse;whiteSpace=wrap;html=1;fontSize=16;" vertex="1" parent="El_QOjaHWbviDtumHYIR-1">
                    <mxGeometry x="30" y="50" width="70" height="60" as="geometry"/>
                </mxCell>
                <mxCell id="zDJ5il20ffKhUO-OGM2W-1" value="Nhân Sự" style="whiteSpace=wrap;html=1;fontSize=16;" vertex="1" parent="El_QOjaHWbviDtumHYIR-1">
                    <mxGeometry x="110" y="67.5" width="100" height="20" as="geometry"/>
                </mxCell>
                <mxCell id="zDJ5il20ffKhUO-OGM2W-2" value="Bảng Lương" style="whiteSpace=wrap;html=1;fontSize=16;" vertex="1" parent="El_QOjaHWbviDtumHYIR-1">
                    <mxGeometry x="230" y="67.5" width="100" height="20" as="geometry"/>
                </mxCell>
                <mxCell id="zDJ5il20ffKhUO-OGM2W-3" value="Phòng ban" style="whiteSpace=wrap;html=1;fontSize=16;" vertex="1" parent="El_QOjaHWbviDtumHYIR-1">
                    <mxGeometry x="351" y="67.5" width="100" height="20" as="geometry"/>
                </mxCell>
                <mxCell id="zDJ5il20ffKhUO-OGM2W-4" value="Input search" style="rounded=1;whiteSpace=wrap;html=1;fontSize=16;" vertex="1" parent="El_QOjaHWbviDtumHYIR-1">
                    <mxGeometry x="540" y="67.5" width="160" height="25" as="geometry"/>
                </mxCell>
                <mxCell id="zDJ5il20ffKhUO-OGM2W-5" value="button search" style="rounded=1;whiteSpace=wrap;html=1;fontSize=13;" vertex="1" parent="El_QOjaHWbviDtumHYIR-1">
                    <mxGeometry x="710" y="70" width="90" height="20" as="geometry"/>
                </mxCell>
            </root>
        </mxGraphModel>
    </diagram>
    <diagram id="qqvtx0ZhG04kGrwoB56I" name="Chi tiết nhân viên ">
        <mxGraphModel dx="1049" dy="629" grid="1" gridSize="10" guides="1" tooltips="1" connect="1" arrows="1" fold="1" page="1" pageScale="1" pageWidth="850" pageHeight="1100" math="0" shadow="0">
            <root>
                <mxCell id="HkHiLPHD-7fE-pB1xiLg-0"/>
                <mxCell id="HkHiLPHD-7fE-pB1xiLg-1" parent="HkHiLPHD-7fE-pB1xiLg-0"/>
                <mxCell id="Day4QrJ8jSqTbs7ssniN-18" value="LOGO" style="ellipse;whiteSpace=wrap;html=1;" parent="HkHiLPHD-7fE-pB1xiLg-1" vertex="1">
                    <mxGeometry x="20" y="40" width="70" height="60" as="geometry"/>
                </mxCell>
                <mxCell id="Day4QrJ8jSqTbs7ssniN-19" value="Nhân Sự" style="whiteSpace=wrap;html=1;" parent="HkHiLPHD-7fE-pB1xiLg-1" vertex="1">
                    <mxGeometry x="100" y="57.5" width="100" height="20" as="geometry"/>
                </mxCell>
                <mxCell id="Day4QrJ8jSqTbs7ssniN-20" value="Bảng Lương" style="whiteSpace=wrap;html=1;" parent="HkHiLPHD-7fE-pB1xiLg-1" vertex="1">
                    <mxGeometry x="220" y="57.5" width="100" height="20" as="geometry"/>
                </mxCell>
                <mxCell id="Day4QrJ8jSqTbs7ssniN-21" value="Phòng ban" style="whiteSpace=wrap;html=1;" parent="HkHiLPHD-7fE-pB1xiLg-1" vertex="1">
                    <mxGeometry x="341" y="57.5" width="100" height="20" as="geometry"/>
                </mxCell>
                <mxCell id="Day4QrJ8jSqTbs7ssniN-22" value="Input search" style="rounded=1;whiteSpace=wrap;html=1;" parent="HkHiLPHD-7fE-pB1xiLg-1" vertex="1">
                    <mxGeometry x="570" y="57.5" width="160" height="25" as="geometry"/>
                </mxCell>
                <mxCell id="Day4QrJ8jSqTbs7ssniN-23" value="button search" style="rounded=1;whiteSpace=wrap;html=1;" parent="HkHiLPHD-7fE-pB1xiLg-1" vertex="1">
                    <mxGeometry x="740" y="60" width="90" height="20" as="geometry"/>
                </mxCell>
                <mxCell id="Day4QrJ8jSqTbs7ssniN-24" value="Nhân Viên /&amp;nbsp; Danh sách nhân viên / Tên nhân Viên&lt;br&gt;" style="text;html=1;align=center;verticalAlign=middle;resizable=0;points=[];autosize=1;strokeColor=none;fillColor=none;" parent="HkHiLPHD-7fE-pB1xiLg-1" vertex="1">
                    <mxGeometry x="120" y="120" width="280" height="20" as="geometry"/>
                </mxCell>
                <mxCell id="Day4QrJ8jSqTbs7ssniN-25" value="Thông tin liên hệ&amp;nbsp;&lt;br&gt;Địa chỉ:&amp;nbsp;&lt;br&gt;Số điện thoại:&lt;br&gt;Tổng Đài:&lt;br&gt;Mail:" style="whiteSpace=wrap;html=1;labelBorderColor=none;strokeWidth=1;" parent="HkHiLPHD-7fE-pB1xiLg-1" vertex="1">
                    <mxGeometry y="550" width="409" height="130" as="geometry"/>
                </mxCell>
                <mxCell id="Day4QrJ8jSqTbs7ssniN-26" value="Link các mạng xã hồi&amp;nbsp;&lt;br&gt;Facebook, Gmail, Youtube" style="whiteSpace=wrap;html=1;labelBorderColor=none;strokeWidth=1;" parent="HkHiLPHD-7fE-pB1xiLg-1" vertex="1">
                    <mxGeometry x="441" y="550" width="409" height="130" as="geometry"/>
                </mxCell>
                <mxCell id="mxw3SSqcKero24H5hulX-0" value="" style="rounded=1;whiteSpace=wrap;html=1;" parent="HkHiLPHD-7fE-pB1xiLg-1" vertex="1">
                    <mxGeometry x="81" y="160" width="689" height="320" as="geometry"/>
                </mxCell>
                <mxCell id="mxw3SSqcKero24H5hulX-1" value="" style="whiteSpace=wrap;html=1;" parent="HkHiLPHD-7fE-pB1xiLg-1" vertex="1">
                    <mxGeometry x="110" y="200" width="200" height="240" as="geometry"/>
                </mxCell>
                <mxCell id="mxw3SSqcKero24H5hulX-3" value="&lt;blockquote style=&quot;margin: 0px 0px 0px 40px ; border: none ; padding: 0px ; line-height: 1.8&quot;&gt;&lt;font style=&quot;font-size: 14px&quot;&gt;Họ và tên : Nguyễn Văn A&lt;br&gt;&lt;/font&gt;&lt;font style=&quot;font-size: 14px&quot;&gt;Ngày sinh : 01/01/2001&lt;br&gt;&lt;/font&gt;&lt;font style=&quot;font-size: 14px&quot;&gt;Ngày vào công ty : 01/01/2022&lt;br&gt;&lt;/font&gt;&lt;font style=&quot;font-size: 14px&quot;&gt;Phòng ban : IT&lt;br&gt;&lt;/font&gt;&lt;font style=&quot;font-size: 14px&quot;&gt;Số ngày nghĩ còn lại : 2&lt;br&gt;&lt;/font&gt;&lt;font style=&quot;font-size: 14px&quot;&gt;Số ngày đã làm thêm : 3&lt;/font&gt;&lt;/blockquote&gt;" style="rounded=1;whiteSpace=wrap;html=1;fontSize=20;align=left;" vertex="1" parent="HkHiLPHD-7fE-pB1xiLg-1">
                    <mxGeometry x="341" y="200" width="391" height="240" as="geometry"/>
                </mxCell>
                <mxCell id="hVZpYavh2iW2fyxsiq_t-1" style="edgeStyle=none;html=1;fontSize=14;" edge="1" parent="HkHiLPHD-7fE-pB1xiLg-1" source="CaMQxYE3cQo3DPpEmg9N-0" target="mxw3SSqcKero24H5hulX-1">
                    <mxGeometry relative="1" as="geometry"/>
                </mxCell>
                <mxCell id="CaMQxYE3cQo3DPpEmg9N-0" value="" style="shape=actor;whiteSpace=wrap;html=1;labelBackgroundColor=none;fontSize=14;" vertex="1" parent="HkHiLPHD-7fE-pB1xiLg-1">
                    <mxGeometry x="140" y="225" width="140" height="190" as="geometry"/>
                </mxCell>
                <mxCell id="w3gO7UC3YUBd_SFfVEqE-0" style="edgeStyle=none;html=1;exitX=0.5;exitY=0;exitDx=0;exitDy=0;fontSize=16;" edge="1" parent="HkHiLPHD-7fE-pB1xiLg-1" source="hVZpYavh2iW2fyxsiq_t-2">
                    <mxGeometry relative="1" as="geometry">
                        <mxPoint x="610" y="500" as="targetPoint"/>
                    </mxGeometry>
                </mxCell>
                <mxCell id="hVZpYavh2iW2fyxsiq_t-2" value="Thoát" style="ellipse;whiteSpace=wrap;html=1;aspect=fixed;labelBackgroundColor=none;fontSize=14;" vertex="1" parent="HkHiLPHD-7fE-pB1xiLg-1">
                    <mxGeometry x="670" y="210" width="50" height="50" as="geometry"/>
                </mxCell>
                <mxCell id="w3gO7UC3YUBd_SFfVEqE-1" value="Chuyển về trang danh sách nhân viên&lt;br&gt;" style="text;html=1;align=center;verticalAlign=middle;resizable=0;points=[];autosize=1;strokeColor=none;fillColor=none;fontSize=16;labelBorderColor=default;" vertex="1" parent="HkHiLPHD-7fE-pB1xiLg-1">
                    <mxGeometry x="505" y="500" width="290" height="20" as="geometry"/>
                </mxCell>
            </root>
        </mxGraphModel>
    </diagram>
    <diagram id="4s0zIhTOJCkejbjJoWLc" name="Danh sách tìm kiếm ">
        <mxGraphModel dx="1049" dy="629" grid="1" gridSize="10" guides="1" tooltips="1" connect="1" arrows="1" fold="1" page="1" pageScale="1" pageWidth="835" pageHeight="1100" math="0" shadow="0">
            <root>
                <mxCell id="5O7RcPs8h8V_JRhfiF0Q-0"/>
                <mxCell id="5O7RcPs8h8V_JRhfiF0Q-1" parent="5O7RcPs8h8V_JRhfiF0Q-0"/>
                <mxCell id="5O7RcPs8h8V_JRhfiF0Q-2" value="Nhân Viên /&amp;nbsp; Danh sách nhân viên" style="text;html=1;align=center;verticalAlign=middle;resizable=0;points=[];autosize=1;strokeColor=none;fillColor=none;" vertex="1" parent="5O7RcPs8h8V_JRhfiF0Q-1">
                    <mxGeometry x="120" y="110" width="200" height="20" as="geometry"/>
                </mxCell>
                <mxCell id="5O7RcPs8h8V_JRhfiF0Q-3" value="Tên Nhân Viên" style="rounded=1;whiteSpace=wrap;html=1;" vertex="1" parent="5O7RcPs8h8V_JRhfiF0Q-1">
                    <mxGeometry x="88" y="150" width="120" height="60" as="geometry"/>
                </mxCell>
                <mxCell id="5O7RcPs8h8V_JRhfiF0Q-4" value="Thông tin liên hệ&amp;nbsp;&lt;br&gt;Địa chỉ:&amp;nbsp;&lt;br&gt;Số điện thoại:&lt;br&gt;Tổng Đài:&lt;br&gt;Mail:" style="whiteSpace=wrap;html=1;labelBorderColor=none;strokeWidth=1;" vertex="1" parent="5O7RcPs8h8V_JRhfiF0Q-1">
                    <mxGeometry y="340" width="409" height="130" as="geometry"/>
                </mxCell>
                <mxCell id="5O7RcPs8h8V_JRhfiF0Q-5" value="Link các mạng xã hồi&amp;nbsp;&lt;br&gt;Facebook, Gmail, Youtube" style="whiteSpace=wrap;html=1;labelBorderColor=none;strokeWidth=1;" vertex="1" parent="5O7RcPs8h8V_JRhfiF0Q-1">
                    <mxGeometry x="421" y="340" width="409" height="130" as="geometry"/>
                </mxCell>
                <mxCell id="5O7RcPs8h8V_JRhfiF0Q-11" value="LOGO" style="ellipse;whiteSpace=wrap;html=1;" vertex="1" parent="5O7RcPs8h8V_JRhfiF0Q-1">
                    <mxGeometry x="30" y="50" width="70" height="60" as="geometry"/>
                </mxCell>
                <mxCell id="5O7RcPs8h8V_JRhfiF0Q-12" value="Nhân Sự" style="whiteSpace=wrap;html=1;" vertex="1" parent="5O7RcPs8h8V_JRhfiF0Q-1">
                    <mxGeometry x="108" y="67.5" width="100" height="20" as="geometry"/>
                </mxCell>
                <mxCell id="5O7RcPs8h8V_JRhfiF0Q-13" value="Bảng Lương" style="whiteSpace=wrap;html=1;" vertex="1" parent="5O7RcPs8h8V_JRhfiF0Q-1">
                    <mxGeometry x="230" y="67.5" width="100" height="20" as="geometry"/>
                </mxCell>
                <mxCell id="5O7RcPs8h8V_JRhfiF0Q-14" value="Phòng ban" style="whiteSpace=wrap;html=1;" vertex="1" parent="5O7RcPs8h8V_JRhfiF0Q-1">
                    <mxGeometry x="348" y="67.5" width="100" height="20" as="geometry"/>
                </mxCell>
                <mxCell id="5O7RcPs8h8V_JRhfiF0Q-15" value="Input search" style="rounded=1;whiteSpace=wrap;html=1;" vertex="1" parent="5O7RcPs8h8V_JRhfiF0Q-1">
                    <mxGeometry x="540" y="67.5" width="160" height="25" as="geometry"/>
                </mxCell>
                <mxCell id="5O7RcPs8h8V_JRhfiF0Q-16" value="button search" style="rounded=1;whiteSpace=wrap;html=1;" vertex="1" parent="5O7RcPs8h8V_JRhfiF0Q-1">
                    <mxGeometry x="710" y="70" width="90" height="20" as="geometry"/>
                </mxCell>
                <mxCell id="5O7RcPs8h8V_JRhfiF0Q-17" value="Tên Nhân Viên" style="rounded=1;whiteSpace=wrap;html=1;" vertex="1" parent="5O7RcPs8h8V_JRhfiF0Q-1">
                    <mxGeometry x="88" y="240" width="120" height="60" as="geometry"/>
                </mxCell>
                <mxCell id="V6ogjHa9J2cFioek5I1n-8" value="Tên Nhân Viên" style="rounded=1;whiteSpace=wrap;html=1;" vertex="1" parent="5O7RcPs8h8V_JRhfiF0Q-1">
                    <mxGeometry x="448" y="240" width="120" height="60" as="geometry"/>
                </mxCell>
                <mxCell id="V6ogjHa9J2cFioek5I1n-9" value="Tên Nhân Viên" style="rounded=1;whiteSpace=wrap;html=1;" vertex="1" parent="5O7RcPs8h8V_JRhfiF0Q-1">
                    <mxGeometry x="268" y="240" width="120" height="60" as="geometry"/>
                </mxCell>
                <mxCell id="V6ogjHa9J2cFioek5I1n-10" value="Tên Nhân Viên" style="rounded=1;whiteSpace=wrap;html=1;" vertex="1" parent="5O7RcPs8h8V_JRhfiF0Q-1">
                    <mxGeometry x="448" y="150" width="120" height="60" as="geometry"/>
                </mxCell>
                <mxCell id="V6ogjHa9J2cFioek5I1n-11" value="Tên Nhân Viên" style="rounded=1;whiteSpace=wrap;html=1;" vertex="1" parent="5O7RcPs8h8V_JRhfiF0Q-1">
                    <mxGeometry x="268" y="160" width="120" height="60" as="geometry"/>
                </mxCell>
                <mxCell id="V6ogjHa9J2cFioek5I1n-12" value="Tên Nhân Viên" style="rounded=1;whiteSpace=wrap;html=1;" vertex="1" parent="5O7RcPs8h8V_JRhfiF0Q-1">
                    <mxGeometry x="628" y="150" width="120" height="60" as="geometry"/>
                </mxCell>
                <mxCell id="V6ogjHa9J2cFioek5I1n-13" value="Tên Nhân Viên" style="rounded=1;whiteSpace=wrap;html=1;" vertex="1" parent="5O7RcPs8h8V_JRhfiF0Q-1">
                    <mxGeometry x="628" y="240" width="120" height="60" as="geometry"/>
                </mxCell>
            </root>
        </mxGraphModel>
    </diagram>
    <diagram id="SkfQ-w4jE5mWjvIWwcHy" name="Trang không tìm thấy nhân viên">
        <mxGraphModel dx="1049" dy="629" grid="1" gridSize="10" guides="1" tooltips="1" connect="1" arrows="1" fold="1" page="1" pageScale="1" pageWidth="835" pageHeight="1100" math="0" shadow="0">
            <root>
                <mxCell id="J1yOmyxYX6cfOPApdRYV-0"/>
                <mxCell id="J1yOmyxYX6cfOPApdRYV-1" parent="J1yOmyxYX6cfOPApdRYV-0"/>
                <mxCell id="wImqd_YSr1yhCEkfzy3Q-0" value="Nhân Viên /&amp;nbsp; Danh sách nhân viên" style="text;html=1;align=center;verticalAlign=middle;resizable=0;points=[];autosize=1;strokeColor=none;fillColor=none;" vertex="1" parent="J1yOmyxYX6cfOPApdRYV-1">
                    <mxGeometry x="120" y="110" width="200" height="20" as="geometry"/>
                </mxCell>
                <mxCell id="wImqd_YSr1yhCEkfzy3Q-2" value="Thông tin liên hệ&amp;nbsp;&lt;br&gt;Địa chỉ:&amp;nbsp;&lt;br&gt;Số điện thoại:&lt;br&gt;Tổng Đài:&lt;br&gt;Mail:" style="whiteSpace=wrap;html=1;labelBorderColor=none;strokeWidth=1;" vertex="1" parent="J1yOmyxYX6cfOPApdRYV-1">
                    <mxGeometry y="340" width="409" height="130" as="geometry"/>
                </mxCell>
                <mxCell id="wImqd_YSr1yhCEkfzy3Q-3" value="Link các mạng xã hồi&amp;nbsp;&lt;br&gt;Facebook, Gmail, Youtube" style="whiteSpace=wrap;html=1;labelBorderColor=none;strokeWidth=1;" vertex="1" parent="J1yOmyxYX6cfOPApdRYV-1">
                    <mxGeometry x="421" y="340" width="409" height="130" as="geometry"/>
                </mxCell>
                <mxCell id="wImqd_YSr1yhCEkfzy3Q-4" value="LOGO" style="ellipse;whiteSpace=wrap;html=1;" vertex="1" parent="J1yOmyxYX6cfOPApdRYV-1">
                    <mxGeometry x="30" y="50" width="70" height="60" as="geometry"/>
                </mxCell>
                <mxCell id="wImqd_YSr1yhCEkfzy3Q-5" value="Nhân Sự" style="whiteSpace=wrap;html=1;" vertex="1" parent="J1yOmyxYX6cfOPApdRYV-1">
                    <mxGeometry x="108" y="67.5" width="100" height="20" as="geometry"/>
                </mxCell>
                <mxCell id="wImqd_YSr1yhCEkfzy3Q-6" value="Bảng Lương" style="whiteSpace=wrap;html=1;" vertex="1" parent="J1yOmyxYX6cfOPApdRYV-1">
                    <mxGeometry x="230" y="67.5" width="100" height="20" as="geometry"/>
                </mxCell>
                <mxCell id="wImqd_YSr1yhCEkfzy3Q-7" value="Phòng ban" style="whiteSpace=wrap;html=1;" vertex="1" parent="J1yOmyxYX6cfOPApdRYV-1">
                    <mxGeometry x="348" y="67.5" width="100" height="20" as="geometry"/>
                </mxCell>
                <mxCell id="wImqd_YSr1yhCEkfzy3Q-8" value="Input search" style="rounded=1;whiteSpace=wrap;html=1;" vertex="1" parent="J1yOmyxYX6cfOPApdRYV-1">
                    <mxGeometry x="540" y="67.5" width="160" height="25" as="geometry"/>
                </mxCell>
                <mxCell id="wImqd_YSr1yhCEkfzy3Q-9" value="button search" style="rounded=1;whiteSpace=wrap;html=1;" vertex="1" parent="J1yOmyxYX6cfOPApdRYV-1">
                    <mxGeometry x="710" y="70" width="90" height="20" as="geometry"/>
                </mxCell>
                <mxCell id="wImqd_YSr1yhCEkfzy3Q-17" value="&lt;font style=&quot;font-size: 32px&quot;&gt;Không có kết quả tìm kiếm phù hợp&lt;/font&gt;" style="text;html=1;align=center;verticalAlign=middle;resizable=0;points=[];autosize=1;strokeColor=none;fillColor=none;fontSize=16;" vertex="1" parent="J1yOmyxYX6cfOPApdRYV-1">
                    <mxGeometry x="108" y="205" width="520" height="30" as="geometry"/>
                </mxCell>
            </root>
        </mxGraphModel>
    </diagram>
    <diagram id="NwOSlFmBn22V2IMX5oZP" name="Mô tả chuyển hướng">
        <mxGraphModel dx="918" dy="550" grid="1" gridSize="10" guides="1" tooltips="1" connect="1" arrows="1" fold="1" page="1" pageScale="1" pageWidth="835" pageHeight="1100" math="0" shadow="0">
            <root>
                <mxCell id="Z6FYGbRI7JgP5_PzkrZE-0"/>
                <mxCell id="Z6FYGbRI7JgP5_PzkrZE-1" parent="Z6FYGbRI7JgP5_PzkrZE-0"/>
                <mxCell id="b2IJdFuPF9gn9pwh29LM-0" value="LOGO" style="ellipse;whiteSpace=wrap;html=1;" vertex="1" parent="Z6FYGbRI7JgP5_PzkrZE-1">
                    <mxGeometry x="30" y="50" width="70" height="60" as="geometry"/>
                </mxCell>
                <mxCell id="b2IJdFuPF9gn9pwh29LM-6" style="edgeStyle=none;html=1;exitX=0;exitY=1;exitDx=0;exitDy=0;fontSize=32;entryX=0.425;entryY=-0.014;entryDx=0;entryDy=0;entryPerimeter=0;" edge="1" parent="Z6FYGbRI7JgP5_PzkrZE-1" source="b2IJdFuPF9gn9pwh29LM-1" target="yHxrPxHw4V-SEQP7hyWD-0">
                    <mxGeometry relative="1" as="geometry">
                        <mxPoint x="90" y="180" as="targetPoint"/>
                    </mxGeometry>
                </mxCell>
                <mxCell id="Xm0B5eW8qQeXa9608OW--0" style="edgeStyle=none;html=1;exitX=0.75;exitY=1;exitDx=0;exitDy=0;fontSize=16;" edge="1" parent="Z6FYGbRI7JgP5_PzkrZE-1" source="b2IJdFuPF9gn9pwh29LM-1">
                    <mxGeometry relative="1" as="geometry">
                        <mxPoint x="160" y="370" as="targetPoint"/>
                        <Array as="points">
                            <mxPoint x="290" y="130"/>
                            <mxPoint x="280" y="230"/>
                            <mxPoint x="180" y="240"/>
                        </Array>
                    </mxGeometry>
                </mxCell>
                <mxCell id="b2IJdFuPF9gn9pwh29LM-1" value="Nhân Sự" style="whiteSpace=wrap;html=1;" vertex="1" parent="Z6FYGbRI7JgP5_PzkrZE-1">
                    <mxGeometry x="110" y="67.5" width="100" height="20" as="geometry"/>
                </mxCell>
                <mxCell id="yHxrPxHw4V-SEQP7hyWD-1" style="edgeStyle=none;html=1;exitX=0.75;exitY=1;exitDx=0;exitDy=0;fontSize=16;entryX=0.432;entryY=-0.042;entryDx=0;entryDy=0;entryPerimeter=0;" edge="1" parent="Z6FYGbRI7JgP5_PzkrZE-1" source="b2IJdFuPF9gn9pwh29LM-2" target="yHxrPxHw4V-SEQP7hyWD-2">
                    <mxGeometry relative="1" as="geometry">
                        <mxPoint x="300" y="240" as="targetPoint"/>
                        <Array as="points">
                            <mxPoint x="320" y="160"/>
                        </Array>
                    </mxGeometry>
                </mxCell>
                <mxCell id="b2IJdFuPF9gn9pwh29LM-2" value="Bảng Lương" style="whiteSpace=wrap;html=1;" vertex="1" parent="Z6FYGbRI7JgP5_PzkrZE-1">
                    <mxGeometry x="230" y="67.5" width="100" height="20" as="geometry"/>
                </mxCell>
                <mxCell id="yHxrPxHw4V-SEQP7hyWD-3" style="edgeStyle=none;html=1;exitX=1;exitY=1;exitDx=0;exitDy=0;fontSize=16;" edge="1" parent="Z6FYGbRI7JgP5_PzkrZE-1" source="b2IJdFuPF9gn9pwh29LM-3">
                    <mxGeometry relative="1" as="geometry">
                        <mxPoint x="470" y="210" as="targetPoint"/>
                    </mxGeometry>
                </mxCell>
                <mxCell id="b2IJdFuPF9gn9pwh29LM-3" value="Phòng ban" style="whiteSpace=wrap;html=1;" vertex="1" parent="Z6FYGbRI7JgP5_PzkrZE-1">
                    <mxGeometry x="351" y="70" width="100" height="20" as="geometry"/>
                </mxCell>
                <mxCell id="yHxrPxHw4V-SEQP7hyWD-7" style="edgeStyle=none;html=1;exitX=0.25;exitY=1;exitDx=0;exitDy=0;fontSize=16;" edge="1" parent="Z6FYGbRI7JgP5_PzkrZE-1" source="b2IJdFuPF9gn9pwh29LM-4">
                    <mxGeometry relative="1" as="geometry">
                        <mxPoint x="540" y="120" as="targetPoint"/>
                    </mxGeometry>
                </mxCell>
                <mxCell id="b2IJdFuPF9gn9pwh29LM-4" value="Input search" style="rounded=1;whiteSpace=wrap;html=1;" vertex="1" parent="Z6FYGbRI7JgP5_PzkrZE-1">
                    <mxGeometry x="540" y="67.5" width="160" height="25" as="geometry"/>
                </mxCell>
                <mxCell id="yHxrPxHw4V-SEQP7hyWD-5" style="edgeStyle=none;html=1;exitX=0;exitY=1;exitDx=0;exitDy=0;fontSize=16;" edge="1" parent="Z6FYGbRI7JgP5_PzkrZE-1" source="b2IJdFuPF9gn9pwh29LM-5">
                    <mxGeometry relative="1" as="geometry">
                        <mxPoint x="590" y="340" as="targetPoint"/>
                    </mxGeometry>
                </mxCell>
                <mxCell id="b2IJdFuPF9gn9pwh29LM-5" value="button search" style="rounded=1;whiteSpace=wrap;html=1;" vertex="1" parent="Z6FYGbRI7JgP5_PzkrZE-1">
                    <mxGeometry x="710" y="70" width="90" height="20" as="geometry"/>
                </mxCell>
                <mxCell id="yHxrPxHw4V-SEQP7hyWD-0" value="Trang danh&lt;br&gt;sách nhân viên&lt;br&gt;(Trang mặc định khi vào web)&lt;br&gt;" style="text;html=1;align=center;verticalAlign=middle;resizable=0;points=[];autosize=1;strokeColor=none;fillColor=none;fontSize=16;labelBorderColor=default;" vertex="1" parent="Z6FYGbRI7JgP5_PzkrZE-1">
                    <mxGeometry y="160" width="230" height="60" as="geometry"/>
                </mxCell>
                <mxCell id="yHxrPxHw4V-SEQP7hyWD-2" value="Khi click sẽ chuyển sang&lt;br&gt;trrang bảng lương&lt;br&gt;" style="text;html=1;align=center;verticalAlign=middle;resizable=0;points=[];autosize=1;strokeColor=none;fillColor=none;fontSize=16;labelBorderColor=default;" vertex="1" parent="Z6FYGbRI7JgP5_PzkrZE-1">
                    <mxGeometry x="250" y="260" width="190" height="40" as="geometry"/>
                </mxCell>
                <mxCell id="yHxrPxHw4V-SEQP7hyWD-4" value="Khi click sẽ chuyển sang&lt;br&gt;trang phòng ban" style="text;html=1;align=center;verticalAlign=middle;resizable=0;points=[];autosize=1;strokeColor=none;fillColor=none;fontSize=16;labelBorderColor=default;" vertex="1" parent="Z6FYGbRI7JgP5_PzkrZE-1">
                    <mxGeometry x="385" y="210" width="190" height="40" as="geometry"/>
                </mxCell>
                <mxCell id="yHxrPxHw4V-SEQP7hyWD-8" value="Nhập tìm kiếm&lt;br&gt;" style="text;html=1;align=center;verticalAlign=middle;resizable=0;points=[];autosize=1;strokeColor=none;fillColor=none;fontSize=16;labelBorderColor=default;" vertex="1" parent="Z6FYGbRI7JgP5_PzkrZE-1">
                    <mxGeometry x="490" y="120" width="120" height="20" as="geometry"/>
                </mxCell>
                <mxCell id="yHxrPxHw4V-SEQP7hyWD-9" value="Khi nhập tìm kiếm xong&lt;br&gt;bấm nút này sẽ chuyển sang trang&lt;br&gt;danh sách tìm kiếm.&lt;br&gt;Nếu trong dữ liệu có nhân viên đang tìm kiếm&amp;nbsp;&lt;br&gt;sẽ hiện ra tên của nhân viên. Khi không có kết qua tìm kiếm&amp;nbsp;&lt;br&gt;sẽ hiện &quot;Không tìm thấy &quot;&lt;br&gt;" style="text;html=1;align=center;verticalAlign=middle;resizable=0;points=[];autosize=1;strokeColor=none;fillColor=none;fontSize=16;labelBorderColor=default;" vertex="1" parent="Z6FYGbRI7JgP5_PzkrZE-1">
                    <mxGeometry x="350" y="340" width="450" height="120" as="geometry"/>
                </mxCell>
                <mxCell id="Xm0B5eW8qQeXa9608OW--2" value="Trong trang danh sách nhân viên&lt;br&gt;Khi bấm vào các hình ảnh và tên nhân viên&lt;br&gt;sẽ chuyển sang trang &quot;Chi tiết nhân viên &quot;&amp;nbsp;" style="text;html=1;align=center;verticalAlign=middle;resizable=0;points=[];autosize=1;strokeColor=none;fillColor=none;fontSize=16;labelBorderColor=default;" vertex="1" parent="Z6FYGbRI7JgP5_PzkrZE-1">
                    <mxGeometry x="20" y="380" width="320" height="60" as="geometry"/>
                </mxCell>
            </root>
        </mxGraphModel>
    </diagram>
</mxfile>